<?xml version="1.0" encoding="UTF-8"?>
<svg width="700pt" height="700pt" version="1.1" fill="url(#grad1)" viewBox="0 0 700 700" xmlns="http://www.w3.org/2000/svg" xmlns:xlink="http://www.w3.org/1999/xlink">
 <defs>
 <linearGradient id="grad1" x1="0%" y1="0%" x2="100%" y2="0%">
      <stop offset="0%" style="stop-color:rgb(255,255,0);stop-opacity:1" />
      <stop offset="100%" style="stop-color:rgb(255,0,0);stop-opacity:1" />
    </linearGradient>
 </defs>
 <g>
  <path d="m410.25 396.52 140.74 140.74c15.535 15.535 40.727 15.535 56.262 0 15.535-15.535 15.535-40.727 0-56.262l-140.74-140.74c22.906-33.734 36.297-74.449 36.297-118.3 0-116.46-94.406-210.86-210.86-210.86-116.46 0-210.86 94.406-210.86 210.86 0 116.46 94.406 210.86 210.86 210.86 43.848-0.003906 84.57-13.391 118.3-36.297zm24.625-174.56c0 78.938-63.992 142.93-142.93 142.93s-142.93-63.992-142.93-142.93 63.992-142.93 142.93-142.93c78.941 0 142.93 63.992 142.93 142.93z" fill-rule="evenodd"/>
  
 </g>
</svg>
